<mxfile host="app.diagrams.net" agent="Mozilla/5.0 (X11; Linux x86_64; rv:132.0) Gecko/20100101 Firefox/132.0" version="24.8.6">
  <diagram name="Page-1" id="Z1i_rONoe3LyYHB9ms3Y">
    <mxGraphModel dx="2284" dy="759" grid="1" gridSize="10" guides="1" tooltips="1" connect="1" arrows="1" fold="1" page="1" pageScale="1" pageWidth="850" pageHeight="1100" math="0" shadow="0">
      <root>
        <mxCell id="0" />
        <mxCell id="1" parent="0" />
        <mxCell id="XIS48sYtsI3Hlzi6tW3H-16" value="Record" style="swimlane;fontStyle=1;align=center;verticalAlign=top;childLayout=stackLayout;horizontal=1;startSize=26;horizontalStack=0;resizeParent=1;resizeParentMax=0;resizeLast=0;collapsible=1;marginBottom=0;whiteSpace=wrap;html=1;" vertex="1" parent="1">
          <mxGeometry x="-20" y="160" width="300" height="330" as="geometry" />
        </mxCell>
        <mxCell id="XIS48sYtsI3Hlzi6tW3H-17" value="&lt;div&gt;isIPv4 : bool&lt;/div&gt;&lt;div&gt;srcIp : uint128&lt;/div&gt;&lt;div&gt;srcPort : uint16&lt;br&gt;&lt;/div&gt;&lt;div&gt;destIp : uint128&lt;/div&gt;&lt;div&gt;destPort : uint16&lt;/div&gt;&lt;div&gt;protocolName : string&lt;/div&gt;&lt;div&gt;recievedBytes : uint32&lt;/div&gt;&lt;div&gt;recievedPackets : uint32&lt;/div&gt;&lt;div&gt;transmitedBytes : uint32&lt;/div&gt;&lt;div&gt;transmitedPackets : uint32&lt;/div&gt;" style="text;strokeColor=none;fillColor=none;align=left;verticalAlign=top;spacingLeft=4;spacingRight=4;overflow=hidden;rotatable=0;points=[[0,0.5],[1,0.5]];portConstraint=eastwest;whiteSpace=wrap;html=1;" vertex="1" parent="XIS48sYtsI3Hlzi6tW3H-16">
          <mxGeometry y="26" width="300" height="154" as="geometry" />
        </mxCell>
        <mxCell id="XIS48sYtsI3Hlzi6tW3H-18" value="" style="line;strokeWidth=1;fillColor=none;align=left;verticalAlign=middle;spacingTop=-1;spacingLeft=3;spacingRight=3;rotatable=0;labelPosition=right;points=[];portConstraint=eastwest;strokeColor=inherit;" vertex="1" parent="XIS48sYtsI3Hlzi6tW3H-16">
          <mxGeometry y="180" width="300" height="8" as="geometry" />
        </mxCell>
        <mxCell id="XIS48sYtsI3Hlzi6tW3H-19" value="&lt;div&gt;numberOfBytes() : uint32&lt;/div&gt;&lt;div&gt;numberOfPackets() : uint32&lt;/div&gt;&lt;div&gt;printableRecords() : string&lt;/div&gt;&lt;div&gt;zeroRecords()&lt;/div&gt;&lt;div&gt;addBytes(Record*)&lt;/div&gt;&lt;div&gt;isSameRecord(Record*) : bool&lt;br&gt;&lt;/div&gt;&lt;div&gt;ipv4ToString(uint32,uint16) : string&lt;/div&gt;&lt;div&gt;ipv6ToString(uint128,uint16) : string&lt;/div&gt;&lt;div&gt;bytesAndPacketsToRightFormat(uint32,uint32) : string&lt;br&gt;&lt;/div&gt;" style="text;strokeColor=none;fillColor=none;align=left;verticalAlign=top;spacingLeft=4;spacingRight=4;overflow=hidden;rotatable=0;points=[[0,0.5],[1,0.5]];portConstraint=eastwest;whiteSpace=wrap;html=1;" vertex="1" parent="XIS48sYtsI3Hlzi6tW3H-16">
          <mxGeometry y="188" width="300" height="142" as="geometry" />
        </mxCell>
        <mxCell id="XIS48sYtsI3Hlzi6tW3H-28" style="edgeStyle=orthogonalEdgeStyle;rounded=0;orthogonalLoop=1;jettySize=auto;html=1;exitX=0.5;exitY=0;exitDx=0;exitDy=0;entryX=0.463;entryY=0.003;entryDx=0;entryDy=0;entryPerimeter=0;endArrow=ERmany;endFill=0;strokeWidth=1;" edge="1" parent="1" source="XIS48sYtsI3Hlzi6tW3H-20" target="XIS48sYtsI3Hlzi6tW3H-16">
          <mxGeometry relative="1" as="geometry">
            <mxPoint x="100" y="40" as="targetPoint" />
            <Array as="points">
              <mxPoint x="-240" y="100" />
              <mxPoint x="119" y="100" />
            </Array>
          </mxGeometry>
        </mxCell>
        <mxCell id="XIS48sYtsI3Hlzi6tW3H-29" value="&lt;div&gt;1&lt;/div&gt;" style="edgeLabel;html=1;align=center;verticalAlign=middle;resizable=0;points=[];" vertex="1" connectable="0" parent="XIS48sYtsI3Hlzi6tW3H-28">
          <mxGeometry x="-0.9396" y="2" relative="1" as="geometry">
            <mxPoint x="12" y="-8" as="offset" />
          </mxGeometry>
        </mxCell>
        <mxCell id="XIS48sYtsI3Hlzi6tW3H-32" value="N" style="edgeLabel;html=1;align=center;verticalAlign=middle;resizable=0;points=[];" vertex="1" connectable="0" parent="XIS48sYtsI3Hlzi6tW3H-28">
          <mxGeometry x="0.9283" y="2" relative="1" as="geometry">
            <mxPoint x="-11" as="offset" />
          </mxGeometry>
        </mxCell>
        <mxCell id="XIS48sYtsI3Hlzi6tW3H-20" value="IsaTop" style="swimlane;fontStyle=1;align=center;verticalAlign=top;childLayout=stackLayout;horizontal=1;startSize=26;horizontalStack=0;resizeParent=1;resizeParentMax=0;resizeLast=0;collapsible=1;marginBottom=0;whiteSpace=wrap;html=1;" vertex="1" parent="1">
          <mxGeometry x="-320" y="210" width="160" height="180" as="geometry" />
        </mxCell>
        <mxCell id="XIS48sYtsI3Hlzi6tW3H-21" value="&lt;div&gt;flagPrintRecords : bool&lt;/div&gt;&lt;div&gt;sortByBytes : bool&lt;/div&gt;&lt;div&gt;records : Record[]&lt;br&gt;&lt;/div&gt;" style="text;strokeColor=none;fillColor=none;align=left;verticalAlign=top;spacingLeft=4;spacingRight=4;overflow=hidden;rotatable=0;points=[[0,0.5],[1,0.5]];portConstraint=eastwest;whiteSpace=wrap;html=1;" vertex="1" parent="XIS48sYtsI3Hlzi6tW3H-20">
          <mxGeometry y="26" width="160" height="54" as="geometry" />
        </mxCell>
        <mxCell id="XIS48sYtsI3Hlzi6tW3H-22" value="" style="line;strokeWidth=1;fillColor=none;align=left;verticalAlign=middle;spacingTop=-1;spacingLeft=3;spacingRight=3;rotatable=0;labelPosition=right;points=[];portConstraint=eastwest;strokeColor=inherit;" vertex="1" parent="XIS48sYtsI3Hlzi6tW3H-20">
          <mxGeometry y="80" width="160" height="8" as="geometry" />
        </mxCell>
        <mxCell id="XIS48sYtsI3Hlzi6tW3H-23" value="&lt;div&gt;addRecord(Record*) : int&lt;/div&gt;&lt;div&gt;sortRecords() : int&lt;/div&gt;&lt;div&gt;deleteAllRecords() : int&lt;/div&gt;&lt;div&gt;printRecords() : int&lt;/div&gt;&lt;div&gt;zeroRecords()&lt;br&gt;&lt;/div&gt;" style="text;strokeColor=none;fillColor=none;align=left;verticalAlign=top;spacingLeft=4;spacingRight=4;overflow=hidden;rotatable=0;points=[[0,0.5],[1,0.5]];portConstraint=eastwest;whiteSpace=wrap;html=1;" vertex="1" parent="XIS48sYtsI3Hlzi6tW3H-20">
          <mxGeometry y="88" width="160" height="92" as="geometry" />
        </mxCell>
      </root>
    </mxGraphModel>
  </diagram>
</mxfile>
